# xmcd
#
# Track frame offsets:
# 150
# 9847
# 26647
# 37682
# 56532
# 69162
# 81587
# 96985
# 107060
# 117517
# 126990
# 143465
# 153722
# 165787
#
# Disc length: 2359 seconds
#
#
# Revision: 0
# Processed by: cddbd v1.5.1PL2 Copyright (c) Steve Scherf et al.
# Submitted via: FreeRIP 2.944 
#
DISCID=aa09350e
DTITLE=Caçula e Marinheiro - Sertanejo Bis
DYEAR=1900
DGENRE=Sertanejo
TTITLE0=Adelita
TTITLE1=Ébrio de amor
TTITLE2=Casa vazia
TTITLE3=Vingança de caboclo
TTITLE4=Somente tu
TTITLE5=Nova flor
TTITLE6=Destino de um boêmio
TTITLE7=Sei que me amas
TTITLE8=Não sei o que será de mim
TTITLE9=Meu amor brigou comigo
TTITLE10=Assim não podemos continuar
TTITLE11=Somente ela
TTITLE12=Fica com Deus
TTITLE13=Minha Canção
EXTD=
EXTT0=
EXTT1=
EXTT2=
EXTT3=
EXTT4=
EXTT5=
EXTT6=
EXTT7=
EXTT8=
EXTT9=
EXTT10=
EXTT11=
EXTT12=
EXTT13=
PLAYORDER=
